# xmcd CD database file
#
# Track frame offsets:
#	150
#	12654
#	31187
#	45493
#	56113
#	62970
#	78845
#	91184
#	103776
#	120525
#	132116
#	136977
#	166905
#	187397
#	200873
#	214311
#	228987
#	247809
#	270193
#	297416
#	317459
#
# Disc length: 4455 seconds
#
# Revision: 0
# Processed by: cddbd v1.5.1PL0 Copyright (c) Steve Scherf et al.
# Submitted via: CDex 1.51
#
DISCID=2d116515
DTITLE=Art Tatum - Live Vol 3, 1945 - 49
DYEAR=1945
DGENRE=Jazz
TTITLE0=Stay As Sweet As You Are
TTITLE1=Where Or When
TTITLE2=Louise
TTITLE3=Song Of The Vagabonds
TTITLE4=Night And Day
TTITLE5=Poor Butterfly
TTITLE6=Indiana
TTITLE7=Sweet Lorraine
TTITLE8=Yesterdays
TTITLE9=Smoke Gets In Your Eyes
TTITLE10=Dialogue
TTITLE11=The Very Thought Of You
TTITLE12=Somebody Loves Me
TTITLE13=The Continental
TTITLE14=I Cover The Waterfront
TTITLE15=Don't Blame Me
TTITLE16=Dardanella
TTITLE17=The Very Thought Of You
TTITLE18=Come Rain Or Come Shine
TTITLE19=Someone To Watch Over Me
TTITLE20=Chopin - Waltz In C# Minor, Opus 64, #2
EXTD=YEAR: 1945
EXTT0=
EXTT1=
EXTT2=
EXTT3=
EXTT4=
EXTT5=
EXTT6=
EXTT7=
EXTT8=
EXTT9=
EXTT10=
EXTT11=
EXTT12=
EXTT13=
EXTT14=
EXTT15=
EXTT16=
EXTT17=
EXTT18=
EXTT19=
EXTT20=
PLAYORDER=
